<svg preserveAspectRatio="none" width="100%" height="100%" overflow="visible" style="display: block;" viewBox="0 0 159 29.9494" fill="none" xmlns="http://www.w3.org/2000/svg">
<g id="Group 9">
<path id="Subtract" d="M29.2764 6.02263C26.4153 5.95953 22.9593 6.57938 19.4355 7.92595C11.6288 10.9093 6.44491 16.3219 7.85645 20.0158C9.26804 23.7097 16.7409 24.2863 24.5479 21.3029C26.2652 20.6466 27.8551 19.8718 29.2764 19.0246V29.9494H14.6377C6.55348 29.9492 0 23.395 0 15.3107C0.000214929 7.22663 6.55362 0.673232 14.6377 0.673016H29.2764V6.02263Z" fill="var(--fill-0, #26241F)"/>
<path id="Subtract_2" d="M126.948 15.3107C126.948 23.3951 120.394 29.9494 112.309 29.9494C104.225 29.9491 97.6715 23.3949 97.6715 15.3107V0.673016H104.451C104.425 2.73577 104.645 4.99289 105.14 7.3195C106.915 15.653 111.551 21.7282 115.494 20.8888C119.437 20.049 121.195 12.6115 119.42 4.27751C119.152 3.01899 118.818 1.81248 118.431 0.673016H126.948V15.3107Z" fill="var(--fill-0, #26241F)"/>
<path id="Subtract_3" d="M48.2044 0.673016C56.2887 0.673016 62.8429 7.2265 62.8431 15.3107C62.8431 23.3951 56.2888 29.9494 48.2044 29.9494C40.1201 29.9493 33.5667 23.395 33.5667 15.3107C33.5669 7.22658 40.1203 0.673143 48.2044 0.673016ZM55.2005 9.04216C53.319 6.95633 48.6648 8.08788 44.805 11.5695C40.9457 15.0509 39.3421 19.5636 41.223 21.6496C43.1044 23.7354 47.7587 22.6045 51.6185 19.1232C55.4783 15.6416 57.0821 11.1281 55.2005 9.04216Z" fill="var(--fill-0, #26241F)"/>
<path id="Subtract_4" d="M144.361 0C152.446 0 159 6.55348 159 14.6377C159 22.7221 152.446 29.2764 144.361 29.2764C136.277 29.2762 129.724 22.722 129.724 14.6377C129.724 6.55359 136.277 0.000166917 144.361 0ZM151.359 8.36914C149.477 6.28324 144.823 7.41483 140.963 10.8965C137.103 14.3781 135.5 18.8906 137.381 20.9766C139.263 23.0624 143.917 21.9317 147.777 18.4502C151.636 14.9687 153.24 10.4551 151.359 8.36914Z" fill="var(--fill-0, #26241F)"/>
<path id="Subtract_5" d="M76.0282 0.673016C76.0483 2.23948 76.3706 4.00077 77.0243 5.78044C78.8165 10.6597 82.407 13.83 85.0438 12.8615C87.6807 11.8929 88.3654 7.15198 86.5731 2.27263C86.3685 1.71568 86.1388 1.18182 85.8915 0.673016H94.8954V29.9494H84.4335C84.3442 28.5533 84.0255 27.0297 83.4608 25.4924C81.6686 20.6131 78.0782 17.4429 75.4413 18.4113C72.8045 19.3798 72.1198 24.1199 73.912 28.9992C74.0312 29.3237 74.1586 29.6407 74.2929 29.9494H65.619V0.673016H76.0282Z" fill="var(--fill-0, #26241F)"/>
</g>
</svg>
